<?xml version="1.0" encoding="UTF-8" standalone="no"?>
<svg
   viewBox="0 0 500 500.00001"
   version="1.1"
   id="svg1656"
   sodipodi:docname="ModestProgress2.svg"
   inkscape:version="1.1.2 (0a00cf5339, 2022-02-04)"
   width="500"
   height="500"
   xmlns:inkscape="http://www.inkscape.org/namespaces/inkscape"
   xmlns:sodipodi="http://sodipodi.sourceforge.net/DTD/sodipodi-0.dtd"
   xmlns="http://www.w3.org/2000/svg"
   xmlns:svg="http://www.w3.org/2000/svg">
  <sodipodi:namedview
     id="namedview1658"
     pagecolor="#505050"
     bordercolor="#ffffff"
     borderopacity="1"
     inkscape:pageshadow="0"
     inkscape:pageopacity="0"
     inkscape:pagecheckerboard="1"
     showgrid="false"
     inkscape:zoom="1.1177317"
     inkscape:cx="172.67113"
     inkscape:cy="206.22122"
     inkscape:window-width="1280"
     inkscape:window-height="736"
     inkscape:window-x="0"
     inkscape:window-y="0"
     inkscape:window-maximized="1"
     inkscape:current-layer="svg1656"
     fit-margin-top="0"
     fit-margin-left="0"
     fit-margin-right="0"
     fit-margin-bottom="0" />
  <defs
     id="defs1514">
    <style
       id="style1512">.cls-1{fill:#e85d76;}.cls-2{fill:#8973b4;}.cls-3{fill:none;}.cls-4{fill:#231f20;}</style>
  </defs>
  <g
     id="Layer_5"
     transform="matrix(1.8052497,0,0,1.8059669,-18.214969,-11.811024)">
    <g
       id="g1593">
      <path
         class="cls-3"
         d="m 216.85,24.52 c 41.92,23.79 70.21,68.83 70.21,120.48 0,36.58 -14.2,69.84 -37.37,94.59"
         id="path1519" />
      <g
         id="g1587">
        <path
           class="cls-3"
           d="m 85.56,92.5 c 2.26,0 4.1,-1.84 4.1,-4.1 0,-2.26 -1.84,-4.1 -4.1,-4.1 -2.26,0 -4.1,1.84 -4.1,4.1 0,2.26 1.84,4.1 4.1,4.1 z m 0,-6.21 c 1.16,0 2.1,0.94 2.1,2.1 0,1.16 -0.94,2.1 -2.1,2.1 -1.16,0 -2.1,-0.94 -2.1,-2.1 0,-1.16 0.94,-2.1 2.1,-2.1 z"
           id="path1521" />
        <circle
           class="cls-2"
           cx="85.559998"
           cy="88.389999"
           r="2.0999999"
           id="circle1523" />
        <path
           class="cls-2"
           d="m 131.67,250.06 h 12.59 c 1.22,0 2.38,-0.58 3.12,-1.54 L 155.55,236 c -1.26,-0.56 -2.51,-1.15 -3.75,-1.76 l -6.16,8.69 c -1.36,1.92 -3.57,3.06 -5.92,3.06 h -8.05 z"
           id="path1525" />
        <path
           class="cls-2"
           d="m 158.15,19.96 c -0.51,-0.86 -0.76,-1.84 -0.72,-2.84 L 157.8,6.85 c -1.04,-0.07 -2.07,-0.12 -3.12,-0.17 l -0.63,26.97 c 3.2,-1.49 6.48,-2.83 9.84,-4.01 z"
           id="path1527" />
        <path
           class="cls-2"
           d="m 102.43,43.27 v -0.4 c 0,-0.46 -0.18,-0.89 -0.51,-1.21 -0.33,-0.32 -0.77,-0.51 -1.22,-0.49 l -29.49,0.46 c -0.95,0 -1.77,-0.34 -2.42,-0.99 -0.65,-0.65 -0.98,-1.52 -0.94,-2.44 l 0.03,-0.84 c 0.06,-1.62 1.37,-2.89 3,-2.89 l 29.51,-0.02 c 0.54,0 1.04,-0.21 1.42,-0.6 0.38,-0.38 0.58,-0.89 0.57,-1.43 l 0.05,-18.01 C 83.18,21.21 65.88,32.14 51.61,46.14 l 48.4,-0.39 c 1.33,-0.02 2.42,-1.13 2.42,-2.47 z"
           id="path1529" />
        <path
           class="cls-2"
           d="m 141.38,235.55 3.19,-5.21 c -1.7,-1 -3.38,-2.05 -5.02,-3.14 l -2.34,3.5 c -1.11,1.66 -2.96,2.64 -4.95,2.64 h -0.59 c 0,0 0,4.24 0,4.24 h 6.08 c 1.47,0 2.86,-0.78 3.63,-2.04 z"
           id="path1531" />
        <path
           class="cls-2"
           d="m 131.67,243.99 h 8.05 c 1.7,0 3.3,-0.83 4.28,-2.21 l 5.98,-8.44 c -1.24,-0.64 -2.47,-1.31 -3.68,-1.99 l -3.21,5.26 c -1.13,1.85 -3.18,3 -5.34,3 h -6.08 v 4.4 z"
           id="path1533" />
        <path
           class="cls-2"
           d="m 80.58,202.68 9.33,13.18 c 0.83,1.17 1.26,2.54 1.26,3.97 v 20.25 c 0,2.16 1.76,3.92 3.92,3.92 h 13.27 v -4.4 h -7.63 c -2.89,0 -5.25,-2.35 -5.25,-5.25 v -22.57 c 0,-1.39 -0.41,-2.73 -1.19,-3.88 l -13.9,-20.6 c -0.83,-1.23 -2.19,-1.91 -3.69,-1.93 l -60.35,0.91 c 1.52,4.88 3.32,9.64 5.35,14.27 h 54.74 c 1.64,0 3.19,0.8 4.14,2.14 z"
           id="path1535" />
        <path
           class="cls-2"
           d="m 76.06,225.86 5.38,7.13 c 1.1,1.46 1.71,3.27 1.71,5.1 v 8.52 c 0,1.9 1.55,3.45 3.45,3.45 h 21.76 v -4.07 H 95.09 c -3.26,0 -5.92,-2.66 -5.92,-5.92 v -20.25 c 0,-1.01 -0.31,-1.98 -0.89,-2.81 l -9.33,-13.18 c -0.57,-0.81 -1.51,-1.29 -2.5,-1.29 H 22.6 c 3.49,7.62 7.65,14.87 12.41,21.68 l 36.95,-0.37 c 1.57,-0.03 3.13,0.74 4.09,2.01 z"
           id="path1537" />
        <path
           class="cls-2"
           d="m 165.83,28.98 c 11.01,-3.65 22.78,-5.63 35.01,-5.63 5.41,0 10.73,0.39 15.93,1.14 -3.48,-1.98 -7.07,-3.8 -10.73,-5.47 l -37.87,-0.21 c -1.86,0 -3.38,-1.52 -3.38,-3.38 l 0.29,-7.9 C 163.33,7.32 161.57,7.16 159.8,7.01 l -0.37,10.19 c -0.02,0.61 0.13,1.22 0.45,1.74 z"
           id="path1539" />
        <path
           class="cls-2"
           d="m 132.57,46.74 -0.19,0.19 c 0.87,-0.68 1.75,-1.34 2.63,-1.99 L 123.47,33.3 c -1.29,-1.3 -2,-3.03 -2,-4.87 V 9.18 c -1.08,0.21 -2.16,0.44 -3.23,0.68 l -0.21,21.01 c 0,0.74 0.29,1.47 0.81,2 z"
           id="path1541" />
        <path
           class="cls-2"
           d="m 136.64,43.75 c 3.34,-2.37 6.82,-4.55 10.42,-6.54 L 147.8,6.54 c -8.31,0.04 -16.44,0.82 -24.34,2.26 v 19.63 c 0,1.3 0.51,2.53 1.42,3.46 z"
           id="path1543" />
        <path
           class="cls-2"
           d="m 152.69,6.59 c -0.96,-0.03 -1.92,-0.04 -2.88,-0.04 l -0.71,29.57 c 0.97,-0.51 1.95,-1.01 2.94,-1.5 L 152.7,6.59 Z"
           id="path1545" />
        <path
           class="cls-2"
           d="m 106.81,75.21 c 0.72,-1.14 1.45,-2.26 2.21,-3.37 l -38.68,0.32 c -3.48,0.04 -4.23,0.51 -4.23,2.68 l 0.04,7.12 h 5 l -0.04,-3.41 c 0,-0.91 0.35,-1.75 0.99,-2.38 0.64,-0.63 1.43,-0.98 2.38,-0.97 h 32.33 z"
           id="path1547" />
        <path
           class="cls-2"
           d="m 105.53,204.45 c 0,-1.16 -0.94,-2.1 -2.1,-2.1 -1.16,0 -2.1,0.94 -2.1,2.1 0,1.16 0.94,2.1 2.1,2.1 1.16,0 2.1,-0.94 2.1,-2.1 z"
           id="path1549" />
        <path
           class="cls-2"
           d="m 45.25,153.52 c -1.16,0 -2.1,0.94 -2.1,2.1 0,1.16 0.94,2.1 2.1,2.1 1.16,0 2.1,-0.94 2.1,-2.1 0,-1.16 -0.94,-2.1 -2.1,-2.1 z"
           id="path1551" />
        <path
           class="cls-2"
           d="m 178.36,253.3 -16.81,18.07 c -1.28,1.37 -3.09,2.16 -4.97,2.16 H 97.12 c 15.9,6.36 33.25,9.87 51.42,9.87 25.17,0 48.76,-6.72 69.09,-18.46 h -23.99 c -0.88,0 -1.71,0.42 -2.24,1.12 l -0.68,0.91 c 0.74,0.74 1.2,1.77 1.2,2.9 0,2.26 -1.84,4.1 -4.1,4.1 -2.26,0 -4.1,-1.84 -4.1,-4.1 0,-2.26 1.84,-4.1 4.1,-4.1 0.41,0 0.79,0.08 1.16,0.19 l 0.81,-1.09 c 0.9,-1.21 2.33,-1.93 3.84,-1.93 h 27.34 c 2.13,-1.31 4.23,-2.68 6.28,-4.11 h -40.83 c -1.62,0 -3.13,0.73 -4.13,2.01 l -4.62,5.87 c 0.59,0.71 0.96,1.61 0.96,2.61 0,2.26 -1.84,4.1 -4.1,4.1 -2.26,0 -4.1,-1.84 -4.1,-4.1 0,-2.26 1.84,-4.1 4.1,-4.1 0.54,0 1.06,0.11 1.53,0.3 l 4.66,-5.91 c 1.39,-1.76 3.47,-2.77 5.71,-2.77 h 43.64 c 2.1,-1.54 4.16,-3.13 6.18,-4.78 h -55.04 c -1.08,0 -2.11,0.45 -2.84,1.24 z"
           id="path1553" />
        <path
           class="cls-2"
           d="m 63.51,170.88 c 0,1.16 0.94,2.1 2.1,2.1 1.16,0 2.1,-0.94 2.1,-2.1 0,-1.16 -0.94,-2.1 -2.1,-2.1 -1.16,0 -2.1,0.94 -2.1,2.1 z"
           id="path1555" />
        <path
           class="cls-2"
           d="m 174.53,267.22 c -1.16,0 -2.1,0.94 -2.1,2.1 0,1.16 0.94,2.1 2.1,2.1 1.16,0 2.1,-0.94 2.1,-2.1 0,-1.16 -0.94,-2.1 -2.1,-2.1 z"
           id="path1557" />
        <path
           class="cls-2"
           d="m 187.83,267.78 c -1.16,0 -2.1,0.94 -2.1,2.1 0,1.16 0.94,2.1 2.1,2.1 1.16,0 2.1,-0.94 2.1,-2.1 0,-1.16 -0.94,-2.1 -2.1,-2.1 z"
           id="path1559" />
        <path
           class="cls-2"
           d="m 200.83,245.62 c -15.41,0 -30.09,-3.14 -43.43,-8.81 l -8.4,12.86 c -1.16,1.52 -2.92,2.39 -4.75,2.39 h -12.61 c -0.13,1.3 -1.22,2.32 -2.55,2.32 h -18.15 c -1.33,0 -2.42,-1.02 -2.55,-2.32 H 86.6 c -3.01,0 -5.45,-2.45 -5.45,-5.45 v -8.52 c 0,-1.4 -0.46,-2.78 -1.3,-3.89 l -5.38,-7.13 c -0.58,-0.76 -1.49,-1.22 -2.45,-1.22 h -0.03 l -35.56,0.36 c 14.25,19.63 33.53,35.37 55.95,45.33 h 64.2 c 1.32,0 2.6,-0.56 3.5,-1.53 l 16.81,-18.07 c 1.11,-1.19 2.68,-1.88 4.31,-1.88 h 57.42 c 3.85,-3.3 7.52,-6.8 10.98,-10.5 -13.36,3.93 -29.44,6.06 -48.77,6.06 z"
           id="path1561" />
        <path
           class="cls-2"
           d="m 70.75,137.58 c 0,1.16 0.94,2.1 2.1,2.1 1.16,0 2.1,-0.94 2.1,-2.1 0,-1.16 -0.94,-2.1 -2.1,-2.1 -1.16,0 -2.1,0.94 -2.1,2.1 z"
           id="path1563" />
        <path
           class="cls-2"
           d="m 114.28,64.77 -52.95,0.31 c -2.38,0.08 -3.23,0.5 -3.23,2.68 l 0.04,14.21 h 6 l -0.03,-7.12 c 0,-4.62 3.74,-4.66 6.21,-4.69 l 40.11,-0.34 c 1.24,-1.73 2.53,-3.41 3.86,-5.06 z"
           id="path1565" />
        <path
           class="cls-2"
           d="m 119.63,58.62 -66.14,0.31 c -2.37,0.08 -3.23,0.5 -3.23,2.68 l -0.07,20.36 h 5.96 L 56.11,67.76 c 0,-4.51 3.51,-4.63 5.19,-4.68 l 54.64,-0.32 c 1.19,-1.41 2.42,-2.79 3.68,-4.14 z"
           id="path1567" />
        <path
           class="cls-2"
           d="m 24.53,137.58 c 0,1.16 0.94,2.1 2.1,2.1 1.16,0 2.1,-0.94 2.1,-2.1 0,-1.16 -0.94,-2.1 -2.1,-2.1 -1.16,0 -2.1,0.94 -2.1,2.1 z"
           id="path1569" />
        <path
           class="cls-2"
           d="m 168.17,16.8 33.22,0.19 C 190.57,12.51 179.06,9.37 167.06,7.76 l -0.28,7.69 c 0,0.73 0.62,1.35 1.38,1.35 z"
           id="path1571" />
        <g
           id="g1577">
          <circle
             class="cls-3"
             cx="85.559998"
             cy="88.389999"
             r="4.0999999"
             id="circle1573" />
          <path
             class="cls-2"
             d="m 89.7,134.48 c 0,-20.95 5.8,-40.54 15.88,-57.27 h -31.1 c -0.35,0 -0.71,0.14 -0.96,0.39 -0.25,0.25 -0.4,0.59 -0.4,0.95 l 0.04,3.68 c 0.52,0.31 0.88,0.87 0.88,1.53 v 35.94 c 0,0.45 -0.17,0.86 -0.45,1.18 l 0.14,12.69 c 1.85,0.4 3.25,2.04 3.25,4.01 0,2.26 -1.84,4.1 -4.1,4.1 -2.26,0 -4.1,-1.84 -4.1,-4.1 0,-1.86 1.26,-3.42 2.96,-3.92 l -0.13,-12.18 h -5.24 l 0.22,45.42 c 1.81,0.43 3.16,2.05 3.16,3.98 0,2.26 -1.84,4.1 -4.1,4.1 -2.26,0 -4.1,-1.84 -4.1,-4.1 0,-1.9 1.3,-3.48 3.05,-3.95 L 64.38,121.47 H 58.3 l 0.04,14.46 c 0,3.49 -0.21,4.04 -0.54,4.49 L 48.43,153 c 0.59,0.71 0.96,1.61 0.96,2.61 0,2.26 -1.84,4.1 -4.1,4.1 -2.26,0 -4.1,-1.84 -4.1,-4.1 0,-2.26 1.84,-4.1 4.1,-4.1 0.54,0 1.06,0.11 1.53,0.3 l 9.37,-12.59 c 0,-0.05 0.15,-0.61 0.15,-3.29 L 56.3,121.47 h -6.21 l -0.05,13.39 c 0,1.9 -1.55,3.46 -3.45,3.49 l -15.96,0.22 c -0.45,1.78 -2.05,3.12 -3.97,3.12 -2.26,0 -4.1,-1.84 -4.1,-4.1 0,-2.26 1.84,-4.1 4.1,-4.1 1.91,0 3.51,1.32 3.96,3.09 l 15.94,-0.22 c 0.81,-0.01 1.48,-0.68 1.48,-1.49 l 0.05,-13.66 c -0.5,-0.32 -0.84,-0.87 -0.84,-1.51 V 83.76 c 0,-0.69 0.4,-1.28 0.97,-1.58 l 0.07,-20.57 c 0,-4.5 3.51,-4.62 5.19,-4.68 l 68.1,-0.32 c 2.99,-3.04 6.15,-5.91 9.47,-8.59 l -13.6,-13.74 c -0.9,-0.91 -1.4,-2.16 -1.39,-3.43 l 0.21,-20.52 c -4.02,0.96 -7.98,2.09 -11.86,3.4 h 0.05 c 0,0 -0.05,18.67 -0.05,18.67 0.02,1.06 -0.39,2.08 -1.14,2.85 -0.76,0.77 -1.77,1.19 -2.84,1.19 l -29.51,0.02 c -0.54,0 -0.98,0.42 -1,0.96 l -0.03,0.84 c -0.01,0.36 0.12,0.7 0.37,0.96 0.25,0.26 0.6,0.4 0.95,0.39 l 29.49,-0.46 c 0.99,0 1.94,0.36 2.66,1.06 0.71,0.7 1.11,1.64 1.11,2.64 v 0.4 c 0,2.43 -1.97,4.43 -4.4,4.47 l -50.44,0.41 c -24.47,24.98 -39.54,59.15 -39.54,96.84 0,13.66 1.99,26.85 5.67,39.31 l 60.92,-0.92 c 0,0 0.07,0 0.1,0 2.12,0 4.09,1.05 5.28,2.81 l 13.9,20.6 c 1,1.48 1.53,3.21 1.53,5 v 22.57 c 0,1.79 1.46,3.25 3.25,3.25 h 7.63 v -4.38 h -1.82 c -2.27,-0.02 -4.11,-1.88 -4.11,-4.15 v -20.65 c -1.78,-0.45 -3.1,-2.05 -3.1,-3.97 0,-2.26 1.84,-4.1 4.1,-4.1 2.26,0 4.1,1.84 4.1,4.1 0,1.92 -1.33,3.52 -3.1,3.97 v 20.65 c 0,1.17 0.95,2.13 2.12,2.14 h 1.82 c 0.07,-1.35 1.19,-2.44 2.57,-2.44 h 18.15 c 1.42,0 2.58,1.15 2.58,2.58 v 0 c 0,0 0.56,0.01 0.56,0.01 h 0.02 c 1.32,0 2.55,-0.66 3.29,-1.76 l 2.35,-3.51 C 108.79,206.04 89.71,172.49 89.71,134.48 Z M 85.56,92.49 c -2.26,0 -4.1,-1.84 -4.1,-4.1 0,-2.26 1.84,-4.1 4.1,-4.1 2.26,0 4.1,1.84 4.1,4.1 0,2.26 -1.84,4.1 -4.1,4.1 z"
             id="path1575" />
        </g>
        <path
           class="cls-3"
           d="m 277.15,168.21 c -1.16,0 -2.1,0.94 -2.1,2.1 0,1.16 0.94,2.1 2.1,2.1 1.16,0 2.1,-0.94 2.1,-2.1 0,-1.16 -0.94,-2.1 -2.1,-2.1 z"
           id="path1579" />
        <path
           class="cls-3"
           d="m 203.22,132.16 c -1.16,0 -2.1,0.94 -2.1,2.1 0,1.16 0.94,2.1 2.1,2.1 1.16,0 2.1,-0.94 2.1,-2.1 0,-1.16 -0.94,-2.1 -2.1,-2.1 z"
           id="path1581" />
        <path
           class="cls-3"
           d="m 180.39,109.16 c -1.16,0 -2.1,0.94 -2.1,2.1 0,1.16 0.94,2.1 2.1,2.1 1.16,0 2.1,-0.94 2.1,-2.1 0,-1.16 -0.94,-2.1 -2.1,-2.1 z"
           id="path1583" />
        <path
           class="cls-3"
           d="m 159.1,86.32 c -1.16,0 -2.1,0.94 -2.1,2.1 0,1.16 0.94,2.1 2.1,2.1 1.16,0 2.1,-0.94 2.1,-2.1 0,-1.16 -0.94,-2.1 -2.1,-2.1 z"
           id="path1585" />
      </g>
      <path
         class="cls-2"
         d="m 130.96,139.29 1.07,17.82 c 0.02,0.4 0.44,0.64 0.8,0.47 l 14.48,-7.08 -11.61,10.17 c -0.33,0.29 -0.2,0.83 0.23,0.94 l 13.76,3.47 -14.13,-0.33 c -0.33,0 -0.53,0.36 -0.34,0.63 l 8.61,12.2 -12.37,-9.96 c -0.21,-0.17 -0.53,-0.06 -0.59,0.2 l -3.96,15.59 -0.73,-15.88 c -0.01,-0.31 -0.32,-0.51 -0.61,-0.41 l -15.44,5.73 13.38,-8.73 c 0.43,-0.28 0.34,-0.94 -0.16,-1.09 l -14.96,-4.4 15.22,1.43 c 0.36,0.03 0.59,-0.37 0.38,-0.66 l -8.44,-12.01 11.55,9.65 c 0.3,0.25 0.75,0.08 0.81,-0.3 l 3.06,-17.45 z"
         id="path1589" />
      <path
         class="cls-2"
         d="m 195.81,64.17 2.22,13.61 c 0.11,0.69 0.94,0.98 1.46,0.51 l 12.23,-11.11 -9.79,13.53 c -0.45,0.62 0.03,1.47 0.79,1.41 l 18.23,-1.43 -18.02,4.2 c -0.6,0.14 -0.76,0.91 -0.28,1.28 l 10.78,8.32 -12.5,-6.06 c -0.81,-0.39 -1.77,0.12 -1.89,1.02 l -1.67,12.9 -2.19,-12.73 c -0.13,-0.73 -1.02,-1.02 -1.55,-0.5 l -9.72,9.58 7.63,-11.84 c 0.41,-0.64 -0.02,-1.49 -0.78,-1.52 l -14.27,-0.7 14.88,-1.76 c 0.8,-0.1 1.13,-1.09 0.53,-1.64 l -9.93,-9.14 11.52,7.2 c 0.63,0.4 1.46,-0.03 1.5,-0.77 l 0.84,-14.36 z"
         id="path1591" />
    </g>
    <path
       class="cls-3"
       d="m 216.82,24.53 c 41.92,23.79 70.21,68.83 70.21,120.48 0,36.58 -14.2,69.84 -37.37,94.59"
       id="path1595" />
    <g
       id="g1653">
      <path
         class="cls-3"
         d="m 200.74,134.28 c 0,-1.16 -0.94,-2.1 -2.1,-2.1 -1.16,0 -2.1,0.94 -2.1,2.1 0,1.16 0.94,2.1 2.1,2.1 1.16,0 2.1,-0.94 2.1,-2.1 z"
         id="path1597" />
      <path
         class="cls-3"
         d="m 182.46,111.28 c 0,-1.16 -0.94,-2.1 -2.1,-2.1 -1.16,0 -2.1,0.94 -2.1,2.1 0,1.16 0.94,2.1 2.1,2.1 1.16,0 2.1,-0.94 2.1,-2.1 z"
         id="path1599" />
      <path
         class="cls-3"
         d="m 161.17,88.44 c 0,-1.16 -0.94,-2.1 -2.1,-2.1 -1.16,0 -2.1,0.94 -2.1,2.1 0,1.16 0.94,2.1 2.1,2.1 1.16,0 2.1,-0.94 2.1,-2.1 z"
         id="path1601" />
      <path
         class="cls-3"
         d="m 277.12,168.23 c -1.16,0 -2.1,0.94 -2.1,2.1 0,1.16 0.94,2.1 2.1,2.1 1.16,0 2.1,-0.94 2.1,-2.1 0,-1.16 -0.94,-2.1 -2.1,-2.1 z"
         id="path1603" />
      <path
         class="cls-1"
         d="m 277.12,166.23 c -1.92,0 -3.52,1.33 -3.97,3.11 l -61.27,0.44 c -0.53,0 -1.07,0 -1.62,0 -4.12,-0.01 -8.8,-0.04 -11.07,3.38 l -43.68,62.86 c 0.64,0.26 1.22,0.57 1.86,0.81 l 43.47,-62.55 c 1.69,-2.54 5.61,-2.52 9.41,-2.5 0.56,0 1.11,0 1.64,0 l 61.26,-0.44 c 0.45,1.77 2.05,3.1 3.96,3.1 2.26,0 4.1,-1.84 4.1,-4.1 0,-2.26 -1.84,-4.1 -4.1,-4.1 z m 0,6.21 c -1.16,0 -2.1,-0.94 -2.1,-2.1 0,-1.16 0.94,-2.1 2.1,-2.1 1.16,0 2.1,0.94 2.1,2.1 0,1.16 -0.94,2.1 -2.1,2.1 z"
         id="path1605" />
      <path
         class="cls-1"
         d="m 196.7,164.58 c 1.96,-2.77 2.98,-6.03 2.94,-9.42 l -0.2,-16.86 c 1.88,-0.37 3.31,-2.03 3.31,-4.02 0,-2.26 -1.84,-4.1 -4.1,-4.1 -2.26,0 -4.1,1.84 -4.1,4.1 0,1.84 1.23,3.38 2.9,3.9 l 0.2,17 c 0.04,2.97 -0.85,5.82 -2.57,8.24 l -45.11,69.92 c 0.61,0.3 1.2,0.63 1.81,0.91 l 44.94,-69.67 z m -0.16,-30.3 c 0,-1.16 0.94,-2.1 2.1,-2.1 1.16,0 2.1,0.94 2.1,2.1 0,1.16 -0.94,2.1 -2.1,2.1 -1.16,0 -2.1,-0.94 -2.1,-2.1 z"
         id="path1607" />
      <path
         class="cls-1"
         d="m 179.74,176.75 c 1.06,-1.73 1.62,-3.72 1.62,-5.75 v -55.76 c 1.78,-0.45 3.1,-2.05 3.1,-3.97 0,-2.26 -1.84,-4.1 -4.1,-4.1 -2.26,0 -4.1,1.84 -4.1,4.1 0,1.92 1.33,3.52 3.1,3.97 V 171 c 0,1.66 -0.46,3.29 -1.32,4.7 l -33.5,54.64 c 0.58,0.34 1.15,0.68 1.73,1 l 33.47,-54.6 z m -1.49,-65.48 c 0,-1.16 0.94,-2.1 2.1,-2.1 1.16,0 2.1,0.94 2.1,2.1 0,1.16 -0.94,2.1 -2.1,2.1 -1.16,0 -2.1,-0.94 -2.1,-2.1 z"
         id="path1609" />
      <path
         class="cls-1"
         d="m 160.09,196.64 c 0.8,-1.19 1.21,-2.59 1.19,-4.03 L 159.7,92.48 c 1.96,-0.31 3.47,-1.99 3.47,-4.04 0,-2.26 -1.84,-4.1 -4.1,-4.1 -2.26,0 -4.1,1.84 -4.1,4.1 0,1.78 1.15,3.28 2.74,3.85 l 1.58,100.34 c 0.02,1.03 -0.28,2.03 -0.85,2.89 l -20.57,30.58 c 0.55,0.39 1.11,0.75 1.66,1.12 l 20.58,-30.58 z M 159.07,90.55 c -1.16,0 -2.1,-0.94 -2.1,-2.1 0,-1.16 0.94,-2.1 2.1,-2.1 1.16,0 2.1,0.94 2.1,2.1 0,1.16 -0.94,2.1 -2.1,2.1 z"
         id="path1611" />
      <g
         id="g1621">
        <circle
           class="cls-3"
           cx="183.46001"
           cy="63.810001"
           r="2.0999999"
           id="circle1613" />
        <g
           id="g1619">
          <circle
             class="cls-3"
             cx="183.46001"
             cy="63.810001"
             r="2.0999999"
             id="circle1615" />
          <path
             class="cls-1"
             d="m 179.43,63.14 -11.81,-0.28 c -1.36,-0.02 -2.68,0.47 -3.68,1.41 l -10.35,9.69 c -1.21,1.01 -2.33,1.21 -3.62,1.19 l -43.23,0.09 c -0.41,0.65 -0.82,1.32 -1.22,2 l 44.45,-0.09 c 1.44,0.01 3.13,-0.17 4.95,-1.7 l 10.39,-9.73 c 0.62,-0.58 1.39,-0.88 2.27,-0.87 l 12.01,0.28 h 0.02 c 0.56,1.6 2.06,2.77 3.86,2.77 2.26,0 4.1,-1.84 4.1,-4.1 0,-2.26 -1.84,-4.1 -4.1,-4.1 -2.02,0 -3.69,1.46 -4.03,3.38 v 0.05 z m 4.03,2.77 c -1.16,0 -2.1,-0.94 -2.1,-2.1 0,-1.16 0.94,-2.1 2.1,-2.1 1.16,0 2.1,0.94 2.1,2.1 0,1.16 -0.94,2.1 -2.1,2.1 z"
             id="path1617" />
        </g>
      </g>
      <g
         id="g1631">
        <path
           class="cls-3"
           d="m 201.36,50.23 c -1.16,0 -2.1,0.94 -2.1,2.1 0,1.16 0.94,2.1 2.1,2.1 1.16,0 2.1,-0.94 2.1,-2.1 0,-1.16 -0.94,-2.1 -2.1,-2.1 z"
           id="path1623" />
        <g
           id="g1629">
          <path
             class="cls-3"
             d="m 201.36,50.23 c -1.16,0 -2.1,0.94 -2.1,2.1 0,1.16 0.94,2.1 2.1,2.1 1.16,0 2.1,-0.94 2.1,-2.1 0,-1.16 -0.94,-2.1 -2.1,-2.1 z"
             id="path1625" />
          <path
             class="cls-1"
             d="m 201.36,48.23 c -2.02,0 -3.7,1.47 -4.03,3.4 l -22.79,-0.3 c -4.44,0 -8.11,3.32 -8.5,3.68 L 151.1,68.42 c -0.82,0.73 -1.88,1.13 -3,1.13 h -0.04 l -37.66,0.28 c -0.46,0.65 -0.94,1.32 -1.41,2.01 l 39.07,-0.3 c 1.62,0 3.17,-0.57 4.38,-1.64 L 167.4,56.47 c 0.14,-0.13 3.41,-3.16 7.13,-3.16 l 22.96,0.3 c 0.55,1.62 2.07,2.8 3.87,2.8 2.26,0 4.1,-1.84 4.1,-4.1 0,-2.26 -1.84,-4.1 -4.1,-4.1 z m 0,6.21 c -1.16,0 -2.1,-0.94 -2.1,-2.1 0,-1.16 0.94,-2.1 2.1,-2.1 1.16,0 2.1,0.94 2.1,2.1 0,1.16 -0.94,2.1 -2.1,2.1 z"
             id="path1627" />
        </g>
      </g>
      <g
         id="g1641">
        <path
           class="cls-3"
           d="m 198.26,36.89 c -1.16,0 -2.1,0.94 -2.1,2.1 0,1.16 0.94,2.1 2.1,2.1 1.16,0 2.1,-0.94 2.1,-2.1 0,-1.16 -0.94,-2.1 -2.1,-2.1 z"
           id="path1633" />
        <g
           id="g1639">
          <path
             class="cls-3"
             d="m 198.26,36.89 c -1.16,0 -2.1,0.94 -2.1,2.1 0,1.16 0.94,2.1 2.1,2.1 1.16,0 2.1,-0.94 2.1,-2.1 0,-1.16 -0.94,-2.1 -2.1,-2.1 z"
             id="path1635" />
          <path
             class="cls-1"
             d="m 198.26,34.89 c -1.92,0 -3.52,1.33 -3.96,3.1 h -16.28 c -4.44,0 -8.11,3.32 -8.54,3.73 l -19.35,19.69 c -0.83,0.74 -1.91,1.12 -3.04,1.13 l -31.17,0.23 c -0.53,0.63 -1.1,1.3 -1.66,2.01 l 32.82,-0.24 c 1.59,0.02 3.17,-0.57 4.42,-1.69 l 19.37,-19.71 c 0.14,-0.13 3.41,-3.16 7.15,-3.16 h 16.28 c 0.45,1.78 2.05,3.1 3.96,3.1 2.26,0 4.1,-1.84 4.1,-4.1 0,-2.26 -1.84,-4.1 -4.1,-4.1 z m 0,6.21 c -1.16,0 -2.1,-0.94 -2.1,-2.1 0,-1.16 0.94,-2.1 2.1,-2.1 1.16,0 2.1,0.94 2.1,2.1 0,1.16 -0.94,2.1 -2.1,2.1 z"
             id="path1637" />
        </g>
      </g>
      <g
         id="g1651">
        <path
           class="cls-3"
           d="m 189.67,30.95 c -1.16,0 -2.1,0.94 -2.1,2.1 0,1.16 0.94,2.1 2.1,2.1 1.16,0 2.1,-0.94 2.1,-2.1 0,-1.16 -0.94,-2.1 -2.1,-2.1 z"
           id="path1643" />
        <g
           id="g1649">
          <path
             class="cls-3"
             d="m 189.67,30.95 c -1.16,0 -2.1,0.94 -2.1,2.1 0,1.16 0.94,2.1 2.1,2.1 1.16,0 2.1,-0.94 2.1,-2.1 0,-1.16 -0.94,-2.1 -2.1,-2.1 z"
             id="path1645" />
          <path
             class="cls-1"
             d="m 186.87,26.84 c -1.92,0 -3.52,1.33 -3.97,3.11 l -6.95,0.06 c -4.44,0 -8.97,5.42 -9.41,5.84 l -18.25,19.34 c -1.11,0.99 -1.94,1.42 -2.85,1.4 l -23.92,0.03 c -0.57,0.55 -1.18,1.22 -1.92,2.01 l 25.84,-0.04 h 0.04 c 1.77,0 3.14,-1.02 4.2,-1.96 l 18.27,-19.35 c 0.14,-0.13 4.27,-5.26 8.01,-5.26 l 6.95,-0.06 c 0.45,1.77 2.05,3.1 3.96,3.1 2.26,0 4.1,-1.84 4.1,-4.1 0,-2.26 -1.84,-4.1 -4.1,-4.1 z m 0,6.21 c -1.16,0 -2.1,-0.94 -2.1,-2.1 0,-1.16 0.94,-2.1 2.1,-2.1 1.16,0 2.1,0.94 2.1,2.1 0,1.16 -0.94,2.1 -2.1,2.1 z"
             id="path1647" />
        </g>
      </g>
    </g>
  </g>
</svg>
